# Blender v2.93.0 OBJ File: 'Base Mountain.blend'
# www.blender.org
mtllib Base Mountain.mtl
o Cube
v 0.389338 1.011886 -1.161643
v 1.000000 -1.000000 -2.522538
v 1.399646 0.573833 1.520248
v 2.670815 -1.000000 1.698743
v -1.329139 1.399732 0.053181
v -2.545151 -1.000000 -1.000000
v -0.705258 1.798070 1.634023
v -1.000000 -1.000000 3.509976
v -0.413458 3.382122 0.480651
vt 0.625000 0.500000
vt 0.875000 0.500000
vt 0.875000 0.750000
vt 0.625000 0.750000
vt 0.375000 0.750000
vt 0.625000 1.000000
vt 0.375000 1.000000
vt 0.375000 0.000000
vt 0.625000 0.000000
vt 0.625000 0.250000
vt 0.375000 0.250000
vt 0.125000 0.500000
vt 0.375000 0.500000
vt 0.125000 0.750000
vt 0.000000 0.000000
vt 0.000000 0.000000
vt 0.000000 0.000000
vt 0.000000 0.000000
vt 0.000000 0.000000
vn 0.3483 0.9290 -0.1249
vn 0.3670 0.4615 0.8077
vn -0.9019 0.3098 0.3009
vn 0.0000 -1.0000 0.0000
vn 0.8085 0.5170 -0.2812
vn -0.3754 0.4840 -0.7904
vn 0.3403 0.5117 0.7889
vn 0.8532 0.4597 -0.2463
vn -0.8961 0.3571 0.2637
vn -0.4718 0.3886 -0.7915
usemtl Material
s off
f 1/1/1 5/2/1 7/3/1 3/4/1
f 4/5/2 3/4/2 7/6/2 8/7/2
f 8/8/3 7/9/3 5/10/3 6/11/3
f 6/12/4 2/13/4 4/5/4 8/14/4
f 2/13/5 1/1/5 3/4/5 4/5/5
f 6/11/6 5/10/6 1/1/6 2/13/6
f 7/15/7 3/16/7 9/17/7
f 9/17/8 3/16/8 1/18/8
f 5/19/9 7/15/9 9/17/9
f 5/19/10 9/17/10 1/18/10
